<mxfile host="app.diagrams.net" modified="2024-05-28T08:23:29.949Z" agent="Mozilla/5.0 (X11; Linux x86_64) AppleWebKit/537.36 (KHTML, like Gecko) Chrome/123.0.0.0 Safari/537.36" etag="nuPYqPlL47_4SU43k-Z9" version="24.4.9" type="github">
  <diagram name="Page-1" id="6neLFJBVGryf510iKTZz">
    <mxGraphModel dx="1366" dy="1920" grid="1" gridSize="10" guides="1" tooltips="1" connect="1" arrows="1" fold="1" page="1" pageScale="1" pageWidth="850" pageHeight="1100" math="0" shadow="0">
      <root>
        <mxCell id="0" />
        <mxCell id="1" parent="0" />
        <mxCell id="m8ZDEifHt8UB5jOYtK-G-1" value="" style="group" vertex="1" connectable="0" parent="1">
          <mxGeometry x="210" y="-1040.41" width="208.39497316201437" height="250" as="geometry" />
        </mxCell>
        <mxCell id="m8ZDEifHt8UB5jOYtK-G-2" value="" style="ellipse;whiteSpace=wrap;html=1;aspect=fixed;fontStyle=0;fillColor=#e3c800;strokeColor=#B09500;fontColor=#000000;" vertex="1" parent="m8ZDEifHt8UB5jOYtK-G-1">
          <mxGeometry x="158.207171314741" y="184.88745980707392" width="20" height="20" as="geometry" />
        </mxCell>
        <mxCell id="m8ZDEifHt8UB5jOYtK-G-3" value="" style="ellipse;whiteSpace=wrap;html=1;aspect=fixed;fontStyle=0;fillColor=#b1ddf0;strokeColor=#10739e;" vertex="1" parent="m8ZDEifHt8UB5jOYtK-G-1">
          <mxGeometry x="125.7330677290837" y="136.6559485530547" width="20" height="20" as="geometry" />
        </mxCell>
        <mxCell id="m8ZDEifHt8UB5jOYtK-G-4" value="" style="endArrow=none;html=1;rounded=0;exitX=0.5;exitY=0;exitDx=0;exitDy=0;entryX=1;entryY=1;entryDx=0;entryDy=0;fontStyle=0" edge="1" parent="m8ZDEifHt8UB5jOYtK-G-1" source="m8ZDEifHt8UB5jOYtK-G-14" target="m8ZDEifHt8UB5jOYtK-G-16">
          <mxGeometry width="50" height="50" relative="1" as="geometry">
            <mxPoint x="54.1235059760956" y="188.90675241157555" as="sourcePoint" />
            <mxPoint x="52.51869930635132" y="35.61418077901067" as="targetPoint" />
          </mxGeometry>
        </mxCell>
        <mxCell id="m8ZDEifHt8UB5jOYtK-G-5" value="" style="endArrow=none;html=1;rounded=0;exitX=0.5;exitY=0;exitDx=0;exitDy=0;entryX=0;entryY=1;entryDx=0;entryDy=0;fontStyle=0" edge="1" parent="m8ZDEifHt8UB5jOYtK-G-1" source="m8ZDEifHt8UB5jOYtK-G-13" target="m8ZDEifHt8UB5jOYtK-G-14">
          <mxGeometry width="50" height="50" relative="1" as="geometry">
            <mxPoint x="-62.453788828710145" y="182.47934966694197" as="sourcePoint" />
            <mxPoint x="-1.661749019895808" y="113.34058602437676" as="targetPoint" />
          </mxGeometry>
        </mxCell>
        <mxCell id="m8ZDEifHt8UB5jOYtK-G-6" value="" style="endArrow=none;html=1;rounded=0;exitX=0.5;exitY=0;exitDx=0;exitDy=0;entryX=0;entryY=1;entryDx=0;entryDy=0;fontStyle=0" edge="1" parent="m8ZDEifHt8UB5jOYtK-G-1" source="m8ZDEifHt8UB5jOYtK-G-10" target="m8ZDEifHt8UB5jOYtK-G-3">
          <mxGeometry width="50" height="50" relative="1" as="geometry">
            <mxPoint x="-32.47051396013444" y="269.29606992417666" as="sourcePoint" />
            <mxPoint x="74.9402390438247" y="152.73311897106112" as="targetPoint" />
          </mxGeometry>
        </mxCell>
        <mxCell id="m8ZDEifHt8UB5jOYtK-G-7" value="" style="endArrow=none;html=1;rounded=0;exitX=0.5;exitY=0;exitDx=0;exitDy=0;entryX=0;entryY=1;entryDx=0;entryDy=0;fontStyle=0" edge="1" parent="m8ZDEifHt8UB5jOYtK-G-1" source="m8ZDEifHt8UB5jOYtK-G-15" target="m8ZDEifHt8UB5jOYtK-G-16">
          <mxGeometry width="50" height="50" relative="1" as="geometry">
            <mxPoint x="54.1235059760956" y="188.90675241157555" as="sourcePoint" />
            <mxPoint x="88.13683490220069" y="33.60979685050961" as="targetPoint" />
          </mxGeometry>
        </mxCell>
        <mxCell id="m8ZDEifHt8UB5jOYtK-G-8" value="" style="endArrow=none;html=1;rounded=0;entryX=0;entryY=1;entryDx=0;entryDy=0;exitX=0.5;exitY=0;exitDx=0;exitDy=0;fontStyle=0" edge="1" parent="m8ZDEifHt8UB5jOYtK-G-1" source="m8ZDEifHt8UB5jOYtK-G-11" target="m8ZDEifHt8UB5jOYtK-G-2">
          <mxGeometry width="50" height="50" relative="1" as="geometry">
            <mxPoint x="106.57808368125" y="182.47934966694197" as="sourcePoint" />
            <mxPoint x="95.75697211155381" y="148.7138263665595" as="targetPoint" />
          </mxGeometry>
        </mxCell>
        <mxCell id="m8ZDEifHt8UB5jOYtK-G-9" value="" style="endArrow=none;html=1;rounded=0;entryX=1;entryY=1;entryDx=0;entryDy=0;exitX=0.5;exitY=0;exitDx=0;exitDy=0;fontStyle=0" edge="1" parent="m8ZDEifHt8UB5jOYtK-G-1" source="m8ZDEifHt8UB5jOYtK-G-12" target="m8ZDEifHt8UB5jOYtK-G-2">
          <mxGeometry width="50" height="50" relative="1" as="geometry">
            <mxPoint x="245.64103982472625" y="184.89092522964313" as="sourcePoint" />
            <mxPoint x="95.75697211155381" y="148.7138263665595" as="targetPoint" />
          </mxGeometry>
        </mxCell>
        <mxCell id="m8ZDEifHt8UB5jOYtK-G-10" value="&lt;font style=&quot;font-size: 12px;&quot;&gt;c&lt;/font&gt;" style="ellipse;whiteSpace=wrap;html=1;aspect=fixed;fontStyle=0" vertex="1" parent="m8ZDEifHt8UB5jOYtK-G-1">
          <mxGeometry x="102.43095617529882" y="188.00745980707393" width="16.881028938906752" height="16.881028938906752" as="geometry" />
        </mxCell>
        <mxCell id="m8ZDEifHt8UB5jOYtK-G-11" value="&lt;font style=&quot;font-size: 12px;&quot;&gt;a&lt;/font&gt;" style="ellipse;whiteSpace=wrap;html=1;aspect=fixed;fontStyle=0" vertex="1" parent="m8ZDEifHt8UB5jOYtK-G-1">
          <mxGeometry x="141.3270916334661" y="233.11897106109325" width="16.881028938906752" height="16.881028938906752" as="geometry" />
        </mxCell>
        <mxCell id="m8ZDEifHt8UB5jOYtK-G-12" value="&lt;font style=&quot;font-size: 12px;&quot;&gt;b&lt;/font&gt;" style="ellipse;whiteSpace=wrap;html=1;aspect=fixed;fontStyle=0" vertex="1" parent="m8ZDEifHt8UB5jOYtK-G-1">
          <mxGeometry x="191.51394422310761" y="233.11897106109325" width="16.881028938906752" height="16.881028938906752" as="geometry" />
        </mxCell>
        <mxCell id="m8ZDEifHt8UB5jOYtK-G-13" value="d" style="ellipse;whiteSpace=wrap;html=1;aspect=fixed;fontStyle=0" vertex="1" parent="m8ZDEifHt8UB5jOYtK-G-1">
          <mxGeometry x="52.30346613545815" y="136.65736334405145" width="16.881028938906752" height="16.881028938906752" as="geometry" />
        </mxCell>
        <mxCell id="m8ZDEifHt8UB5jOYtK-G-14" value="" style="ellipse;whiteSpace=wrap;html=1;aspect=fixed;fontStyle=0;fillColor=#fad7ac;strokeColor=#b46504;" vertex="1" parent="m8ZDEifHt8UB5jOYtK-G-1">
          <mxGeometry x="82.43426294820716" y="72.34726688102887" width="20" height="20" as="geometry" />
        </mxCell>
        <mxCell id="m8ZDEifHt8UB5jOYtK-G-15" value="&lt;font style=&quot;font-size: 12px;&quot;&gt;e&lt;/font&gt;" style="ellipse;whiteSpace=wrap;html=1;aspect=fixed;fontStyle=0" vertex="1" parent="m8ZDEifHt8UB5jOYtK-G-1">
          <mxGeometry y="73.90655948553051" width="16.881028938906752" height="16.881028938906752" as="geometry" />
        </mxCell>
        <mxCell id="m8ZDEifHt8UB5jOYtK-G-16" value="" style="ellipse;whiteSpace=wrap;html=1;aspect=fixed;fontStyle=0;fillColor=#bac8d3;strokeColor=#23445d;" vertex="1" parent="m8ZDEifHt8UB5jOYtK-G-1">
          <mxGeometry x="32.306772908366554" width="20" height="20" as="geometry" />
        </mxCell>
        <mxCell id="m8ZDEifHt8UB5jOYtK-G-17" value="" style="endArrow=none;html=1;rounded=0;entryX=1;entryY=1;entryDx=0;entryDy=0;exitX=0.5;exitY=0;exitDx=0;exitDy=0;fontStyle=0" edge="1" parent="m8ZDEifHt8UB5jOYtK-G-1" source="m8ZDEifHt8UB5jOYtK-G-3" target="m8ZDEifHt8UB5jOYtK-G-14">
          <mxGeometry width="50" height="50" relative="1" as="geometry">
            <mxPoint x="45.796812749004005" y="171.22186495176845" as="sourcePoint" />
            <mxPoint x="87.43027888446215" y="131.0289389067524" as="targetPoint" />
          </mxGeometry>
        </mxCell>
        <mxCell id="m8ZDEifHt8UB5jOYtK-G-18" value="" style="endArrow=none;html=1;rounded=0;entryX=1;entryY=1;entryDx=0;entryDy=0;exitX=0.5;exitY=0;exitDx=0;exitDy=0;fontStyle=0" edge="1" parent="m8ZDEifHt8UB5jOYtK-G-1" source="m8ZDEifHt8UB5jOYtK-G-2" target="m8ZDEifHt8UB5jOYtK-G-3">
          <mxGeometry width="50" height="50" relative="1" as="geometry">
            <mxPoint x="124.9003984063745" y="225.08038585209" as="sourcePoint" />
            <mxPoint x="166.5338645418327" y="184.88745980707392" as="targetPoint" />
          </mxGeometry>
        </mxCell>
        <mxCell id="m8ZDEifHt8UB5jOYtK-G-19" value="" style="group" vertex="1" connectable="0" parent="1">
          <mxGeometry x="597.44" y="-1040" width="207.9855577689243" height="249.59058460690994" as="geometry" />
        </mxCell>
        <mxCell id="m8ZDEifHt8UB5jOYtK-G-20" value="" style="ellipse;whiteSpace=wrap;html=1;aspect=fixed;fontStyle=0;fillColor=#e1d5e7;strokeColor=#9673a6;" vertex="1" parent="m8ZDEifHt8UB5jOYtK-G-19">
          <mxGeometry x="158.20717131474112" y="184.88745980707392" width="20" height="20" as="geometry" />
        </mxCell>
        <mxCell id="m8ZDEifHt8UB5jOYtK-G-21" value="" style="ellipse;whiteSpace=wrap;html=1;aspect=fixed;fontStyle=0;fillColor=#e6d0de;gradientColor=#d5739d;strokeColor=#996185;" vertex="1" parent="m8ZDEifHt8UB5jOYtK-G-19">
          <mxGeometry x="125.73306772908359" y="136.6559485530547" width="20" height="20" as="geometry" />
        </mxCell>
        <mxCell id="m8ZDEifHt8UB5jOYtK-G-22" value="" style="endArrow=none;html=1;rounded=0;exitX=0.5;exitY=0;exitDx=0;exitDy=0;entryX=1;entryY=1;entryDx=0;entryDy=0;fontStyle=0" edge="1" parent="m8ZDEifHt8UB5jOYtK-G-19" source="m8ZDEifHt8UB5jOYtK-G-32" target="m8ZDEifHt8UB5jOYtK-G-34">
          <mxGeometry width="50" height="50" relative="1" as="geometry">
            <mxPoint x="54.12350597609566" y="188.90675241157555" as="sourcePoint" />
            <mxPoint x="52.51869930635132" y="35.61418077901067" as="targetPoint" />
          </mxGeometry>
        </mxCell>
        <mxCell id="m8ZDEifHt8UB5jOYtK-G-23" value="" style="endArrow=none;html=1;rounded=0;exitX=0.5;exitY=0;exitDx=0;exitDy=0;entryX=0;entryY=1;entryDx=0;entryDy=0;fontStyle=0" edge="1" parent="m8ZDEifHt8UB5jOYtK-G-19" source="m8ZDEifHt8UB5jOYtK-G-31" target="m8ZDEifHt8UB5jOYtK-G-32">
          <mxGeometry width="50" height="50" relative="1" as="geometry">
            <mxPoint x="-62.45378882871012" y="182.47934966694197" as="sourcePoint" />
            <mxPoint x="-1.6617490198957512" y="113.34058602437676" as="targetPoint" />
          </mxGeometry>
        </mxCell>
        <mxCell id="m8ZDEifHt8UB5jOYtK-G-24" value="" style="endArrow=none;html=1;rounded=0;exitX=0.5;exitY=0;exitDx=0;exitDy=0;entryX=0;entryY=1;entryDx=0;entryDy=0;fontStyle=0" edge="1" parent="m8ZDEifHt8UB5jOYtK-G-19" source="m8ZDEifHt8UB5jOYtK-G-28" target="m8ZDEifHt8UB5jOYtK-G-21">
          <mxGeometry width="50" height="50" relative="1" as="geometry">
            <mxPoint x="-32.47051396013444" y="269.29606992417666" as="sourcePoint" />
            <mxPoint x="74.9402390438247" y="152.73311897106112" as="targetPoint" />
          </mxGeometry>
        </mxCell>
        <mxCell id="m8ZDEifHt8UB5jOYtK-G-25" value="" style="endArrow=none;html=1;rounded=0;exitX=0.5;exitY=0;exitDx=0;exitDy=0;entryX=0;entryY=1;entryDx=0;entryDy=0;fontStyle=0" edge="1" parent="m8ZDEifHt8UB5jOYtK-G-19" source="m8ZDEifHt8UB5jOYtK-G-33" target="m8ZDEifHt8UB5jOYtK-G-34">
          <mxGeometry width="50" height="50" relative="1" as="geometry">
            <mxPoint x="54.12350597609566" y="188.90675241157555" as="sourcePoint" />
            <mxPoint x="88.13683490220069" y="33.60979685050961" as="targetPoint" />
          </mxGeometry>
        </mxCell>
        <mxCell id="m8ZDEifHt8UB5jOYtK-G-26" value="" style="endArrow=none;html=1;rounded=0;entryX=0;entryY=1;entryDx=0;entryDy=0;exitX=0.5;exitY=0;exitDx=0;exitDy=0;fontStyle=0" edge="1" parent="m8ZDEifHt8UB5jOYtK-G-19" source="m8ZDEifHt8UB5jOYtK-G-29" target="m8ZDEifHt8UB5jOYtK-G-20">
          <mxGeometry width="50" height="50" relative="1" as="geometry">
            <mxPoint x="106.57808368125006" y="182.47934966694197" as="sourcePoint" />
            <mxPoint x="95.75697211155375" y="148.7138263665595" as="targetPoint" />
          </mxGeometry>
        </mxCell>
        <mxCell id="m8ZDEifHt8UB5jOYtK-G-27" value="" style="endArrow=none;html=1;rounded=0;entryX=1;entryY=1;entryDx=0;entryDy=0;exitX=0.5;exitY=0;exitDx=0;exitDy=0;fontStyle=0" edge="1" parent="m8ZDEifHt8UB5jOYtK-G-19" source="m8ZDEifHt8UB5jOYtK-G-30" target="m8ZDEifHt8UB5jOYtK-G-20">
          <mxGeometry width="50" height="50" relative="1" as="geometry">
            <mxPoint x="245.64103982472625" y="184.89092522964313" as="sourcePoint" />
            <mxPoint x="95.75697211155375" y="148.7138263665595" as="targetPoint" />
          </mxGeometry>
        </mxCell>
        <mxCell id="m8ZDEifHt8UB5jOYtK-G-28" value="e" style="ellipse;whiteSpace=wrap;html=1;aspect=fixed;fontStyle=0" vertex="1" parent="m8ZDEifHt8UB5jOYtK-G-19">
          <mxGeometry x="102.43095617529882" y="188.41745980707393" width="16.471613545816734" height="16.471613545816734" as="geometry" />
        </mxCell>
        <mxCell id="m8ZDEifHt8UB5jOYtK-G-29" value="a" style="ellipse;whiteSpace=wrap;html=1;aspect=fixed;fontStyle=0" vertex="1" parent="m8ZDEifHt8UB5jOYtK-G-19">
          <mxGeometry x="141.7370916334662" y="233.11897106109325" width="16.471613545816734" height="16.471613545816734" as="geometry" />
        </mxCell>
        <mxCell id="m8ZDEifHt8UB5jOYtK-G-30" value="d" style="ellipse;whiteSpace=wrap;html=1;aspect=fixed;fontStyle=0" vertex="1" parent="m8ZDEifHt8UB5jOYtK-G-19">
          <mxGeometry x="191.5139442231075" y="233.11897106109325" width="16.471613545816734" height="16.471613545816734" as="geometry" />
        </mxCell>
        <mxCell id="m8ZDEifHt8UB5jOYtK-G-31" value="b" style="ellipse;whiteSpace=wrap;html=1;aspect=fixed;fontStyle=0" vertex="1" parent="m8ZDEifHt8UB5jOYtK-G-19">
          <mxGeometry x="53.30346613545821" y="136.65736334405145" width="16.471613545816734" height="16.471613545816734" as="geometry" />
        </mxCell>
        <mxCell id="m8ZDEifHt8UB5jOYtK-G-32" value="" style="ellipse;whiteSpace=wrap;html=1;aspect=fixed;fontStyle=0;fillColor=#f8cecc;gradientColor=#ea6b66;strokeColor=#b85450;" vertex="1" parent="m8ZDEifHt8UB5jOYtK-G-19">
          <mxGeometry x="82.4342629482071" y="72.34726688102899" width="20" height="20" as="geometry" />
        </mxCell>
        <mxCell id="m8ZDEifHt8UB5jOYtK-G-33" value="c" style="ellipse;whiteSpace=wrap;html=1;aspect=fixed;fontStyle=0" vertex="1" parent="m8ZDEifHt8UB5jOYtK-G-19">
          <mxGeometry y="76.3665594855305" width="16.471613545816734" height="16.471613545816734" as="geometry" />
        </mxCell>
        <mxCell id="m8ZDEifHt8UB5jOYtK-G-34" value="" style="ellipse;whiteSpace=wrap;html=1;aspect=fixed;fontStyle=0;fillColor=#bac8d3;strokeColor=#23445d;" vertex="1" parent="m8ZDEifHt8UB5jOYtK-G-19">
          <mxGeometry x="33.3067729083665" width="20" height="20" as="geometry" />
        </mxCell>
        <mxCell id="m8ZDEifHt8UB5jOYtK-G-35" value="" style="endArrow=none;html=1;rounded=0;entryX=1;entryY=1;entryDx=0;entryDy=0;exitX=0.5;exitY=0;exitDx=0;exitDy=0;fontStyle=0" edge="1" parent="m8ZDEifHt8UB5jOYtK-G-19" source="m8ZDEifHt8UB5jOYtK-G-21" target="m8ZDEifHt8UB5jOYtK-G-32">
          <mxGeometry width="50" height="50" relative="1" as="geometry">
            <mxPoint x="45.79681274900395" y="171.22186495176845" as="sourcePoint" />
            <mxPoint x="87.43027888446204" y="131.0289389067524" as="targetPoint" />
          </mxGeometry>
        </mxCell>
        <mxCell id="m8ZDEifHt8UB5jOYtK-G-36" value="" style="endArrow=none;html=1;rounded=0;entryX=1;entryY=1;entryDx=0;entryDy=0;exitX=0.5;exitY=0;exitDx=0;exitDy=0;fontStyle=0" edge="1" parent="m8ZDEifHt8UB5jOYtK-G-19" source="m8ZDEifHt8UB5jOYtK-G-20" target="m8ZDEifHt8UB5jOYtK-G-21">
          <mxGeometry width="50" height="50" relative="1" as="geometry">
            <mxPoint x="124.9003984063745" y="225.08038585209" as="sourcePoint" />
            <mxPoint x="166.5338645418326" y="184.88745980707392" as="targetPoint" />
          </mxGeometry>
        </mxCell>
        <mxCell id="m8ZDEifHt8UB5jOYtK-G-37" value="" style="group" vertex="1" connectable="0" parent="1">
          <mxGeometry x="110" y="-700" width="280" height="309.59" as="geometry" />
        </mxCell>
        <mxCell id="m8ZDEifHt8UB5jOYtK-G-38" value="(a)&amp;nbsp; &amp;nbsp;Majority-rule Consensus Tree" style="text;html=1;align=center;verticalAlign=middle;resizable=0;points=[];autosize=1;strokeColor=none;fillColor=none;" vertex="1" parent="m8ZDEifHt8UB5jOYtK-G-37">
          <mxGeometry x="34.75999999999999" y="279.59" width="200" height="30" as="geometry" />
        </mxCell>
        <mxCell id="m8ZDEifHt8UB5jOYtK-G-39" value="" style="endArrow=none;html=1;rounded=0;exitX=0.5;exitY=0;exitDx=0;exitDy=0;entryX=0.255;entryY=0.95;entryDx=0;entryDy=0;fontStyle=0;entryPerimeter=0;" edge="1" parent="m8ZDEifHt8UB5jOYtK-G-37" source="m8ZDEifHt8UB5jOYtK-G-46" target="m8ZDEifHt8UB5jOYtK-G-49">
          <mxGeometry width="50" height="50" relative="1" as="geometry">
            <mxPoint x="-126.09564747632706" y="499.6919916644242" as="sourcePoint" />
            <mxPoint x="144.97373301137162" y="69.53325386584618" as="targetPoint" />
          </mxGeometry>
        </mxCell>
        <mxCell id="m8ZDEifHt8UB5jOYtK-G-40" value="" style="endArrow=none;html=1;rounded=0;exitX=0.5;exitY=0;exitDx=0;exitDy=0;entryX=0.029;entryY=0.691;entryDx=0;entryDy=0;fontStyle=0;entryPerimeter=0;" edge="1" parent="m8ZDEifHt8UB5jOYtK-G-37" source="m8ZDEifHt8UB5jOYtK-G-47" target="m8ZDEifHt8UB5jOYtK-G-49">
          <mxGeometry width="50" height="50" relative="1" as="geometry">
            <mxPoint x="154.14892203329768" y="518.3127861261222" as="sourcePoint" />
            <mxPoint x="116.07644036972016" y="55.10808417624619" as="targetPoint" />
          </mxGeometry>
        </mxCell>
        <mxCell id="m8ZDEifHt8UB5jOYtK-G-41" value="" style="endArrow=none;html=1;rounded=0;entryX=0.75;entryY=0.87;entryDx=0;entryDy=0;exitX=0.5;exitY=0;exitDx=0;exitDy=0;fontStyle=0;entryPerimeter=0;" edge="1" parent="m8ZDEifHt8UB5jOYtK-G-37" source="m8ZDEifHt8UB5jOYtK-G-44" target="m8ZDEifHt8UB5jOYtK-G-49">
          <mxGeometry width="50" height="50" relative="1" as="geometry">
            <mxPoint x="280.246465919555" y="499.6919916644242" as="sourcePoint" />
            <mxPoint x="161.3205102792458" y="61.160650166904894" as="targetPoint" />
          </mxGeometry>
        </mxCell>
        <mxCell id="m8ZDEifHt8UB5jOYtK-G-42" value="" style="endArrow=none;html=1;rounded=0;entryX=0.953;entryY=0.675;entryDx=0;entryDy=0;exitX=0.5;exitY=0;exitDx=0;exitDy=0;fontStyle=0;entryPerimeter=0;" edge="1" parent="m8ZDEifHt8UB5jOYtK-G-37" source="m8ZDEifHt8UB5jOYtK-G-45" target="m8ZDEifHt8UB5jOYtK-G-49">
          <mxGeometry width="50" height="50" relative="1" as="geometry">
            <mxPoint x="614.5451674327228" y="506.67855445907793" as="sourcePoint" />
            <mxPoint x="173.87102565302277" y="55.10808417624585" as="targetPoint" />
          </mxGeometry>
        </mxCell>
        <mxCell id="m8ZDEifHt8UB5jOYtK-G-43" value="a" style="ellipse;whiteSpace=wrap;html=1;aspect=fixed;fontStyle=0" vertex="1" parent="m8ZDEifHt8UB5jOYtK-G-37">
          <mxGeometry x="120.1991902615206" y="192.27579735908844" width="16.612115933126635" height="16.612115933126635" as="geometry" />
        </mxCell>
        <mxCell id="m8ZDEifHt8UB5jOYtK-G-44" value="b" style="ellipse;whiteSpace=wrap;html=1;aspect=fixed;fontStyle=0" vertex="1" parent="m8ZDEifHt8UB5jOYtK-G-37">
          <mxGeometry x="185.84144237638225" y="192.28017560510645" width="16.612115933126635" height="16.612115933126635" as="geometry" />
        </mxCell>
        <mxCell id="m8ZDEifHt8UB5jOYtK-G-45" value="c" style="ellipse;whiteSpace=wrap;html=1;aspect=fixed;fontStyle=0" vertex="1" parent="m8ZDEifHt8UB5jOYtK-G-37">
          <mxGeometry x="240.4032650182408" y="192.28017560510645" width="16.612115933126635" height="16.612115933126635" as="geometry" />
        </mxCell>
        <mxCell id="m8ZDEifHt8UB5jOYtK-G-46" value="d" style="ellipse;whiteSpace=wrap;html=1;aspect=fixed;fontStyle=0" vertex="1" parent="m8ZDEifHt8UB5jOYtK-G-37">
          <mxGeometry x="63.64056682719707" y="192.2755178965767" width="16.612115933126635" height="16.612115933126635" as="geometry" />
        </mxCell>
        <mxCell id="m8ZDEifHt8UB5jOYtK-G-47" value="e" style="ellipse;whiteSpace=wrap;html=1;aspect=fixed;fontStyle=0" vertex="1" parent="m8ZDEifHt8UB5jOYtK-G-37">
          <mxGeometry y="192.27318904231169" width="16.612115933126635" height="16.612115933126635" as="geometry" />
        </mxCell>
        <mxCell id="m8ZDEifHt8UB5jOYtK-G-48" value="" style="endArrow=none;html=1;rounded=0;fontSize=12;startSize=8;endSize=8;curved=1;entryX=0.5;entryY=1;entryDx=0;entryDy=0;exitX=0.5;exitY=0;exitDx=0;exitDy=0;" edge="1" parent="m8ZDEifHt8UB5jOYtK-G-37" source="m8ZDEifHt8UB5jOYtK-G-43" target="m8ZDEifHt8UB5jOYtK-G-49">
          <mxGeometry width="50" height="50" relative="1" as="geometry">
            <mxPoint x="48.07875667021774" y="289.7124514850734" as="sourcePoint" />
            <mxPoint x="144.97373301137162" y="69.53325386584618" as="targetPoint" />
          </mxGeometry>
        </mxCell>
        <mxCell id="m8ZDEifHt8UB5jOYtK-G-49" value="" style="ellipse;whiteSpace=wrap;html=1;aspect=fixed;fontStyle=0;fillColor=#bac8d3;strokeColor=#23445d;" vertex="1" parent="m8ZDEifHt8UB5jOYtK-G-37">
          <mxGeometry x="120.20637334269645" width="16.612115933126635" height="16.612115933126635" as="geometry" />
        </mxCell>
        <mxCell id="m8ZDEifHt8UB5jOYtK-G-50" value="" style="ellipse;whiteSpace=wrap;html=1;aspect=fixed;fontStyle=0;fillColor=#ffe6cc;strokeColor=#d79b00;" vertex="1" parent="1">
          <mxGeometry x="558.207171314741" y="-855.5225401929262" width="20" height="20" as="geometry" />
        </mxCell>
        <mxCell id="m8ZDEifHt8UB5jOYtK-G-51" value="" style="ellipse;whiteSpace=wrap;html=1;aspect=fixed;fontStyle=0;fillColor=#b1ddf0;strokeColor=#10739e;" vertex="1" parent="1">
          <mxGeometry x="525.7330677290837" y="-903.7540514469454" width="20" height="20" as="geometry" />
        </mxCell>
        <mxCell id="m8ZDEifHt8UB5jOYtK-G-52" value="" style="endArrow=none;html=1;rounded=0;exitX=0.5;exitY=0;exitDx=0;exitDy=0;entryX=1;entryY=1;entryDx=0;entryDy=0;fontStyle=0" edge="1" parent="1" source="m8ZDEifHt8UB5jOYtK-G-62" target="m8ZDEifHt8UB5jOYtK-G-64">
          <mxGeometry width="50" height="50" relative="1" as="geometry">
            <mxPoint x="454.12350597609566" y="-851.5032475884245" as="sourcePoint" />
            <mxPoint x="452.5186993063513" y="-1004.7958192209894" as="targetPoint" />
          </mxGeometry>
        </mxCell>
        <mxCell id="m8ZDEifHt8UB5jOYtK-G-53" value="" style="endArrow=none;html=1;rounded=0;exitX=0.5;exitY=0;exitDx=0;exitDy=0;entryX=0;entryY=1;entryDx=0;entryDy=0;fontStyle=0" edge="1" parent="1" source="m8ZDEifHt8UB5jOYtK-G-61" target="m8ZDEifHt8UB5jOYtK-G-62">
          <mxGeometry width="50" height="50" relative="1" as="geometry">
            <mxPoint x="337.5462111712898" y="-857.9306503330581" as="sourcePoint" />
            <mxPoint x="398.33825098010425" y="-927.0694139756233" as="targetPoint" />
          </mxGeometry>
        </mxCell>
        <mxCell id="m8ZDEifHt8UB5jOYtK-G-54" value="" style="endArrow=none;html=1;rounded=0;exitX=0.5;exitY=0;exitDx=0;exitDy=0;entryX=0;entryY=1;entryDx=0;entryDy=0;fontStyle=0" edge="1" parent="1" source="m8ZDEifHt8UB5jOYtK-G-58" target="m8ZDEifHt8UB5jOYtK-G-51">
          <mxGeometry width="50" height="50" relative="1" as="geometry">
            <mxPoint x="367.52948603986556" y="-771.1139300758234" as="sourcePoint" />
            <mxPoint x="474.9402390438247" y="-887.676881028939" as="targetPoint" />
          </mxGeometry>
        </mxCell>
        <mxCell id="m8ZDEifHt8UB5jOYtK-G-55" value="" style="endArrow=none;html=1;rounded=0;exitX=0.5;exitY=0;exitDx=0;exitDy=0;entryX=0;entryY=1;entryDx=0;entryDy=0;fontStyle=0" edge="1" parent="1" source="m8ZDEifHt8UB5jOYtK-G-63" target="m8ZDEifHt8UB5jOYtK-G-64">
          <mxGeometry width="50" height="50" relative="1" as="geometry">
            <mxPoint x="454.12350597609566" y="-851.5032475884245" as="sourcePoint" />
            <mxPoint x="488.1368349022007" y="-1006.8002031494905" as="targetPoint" />
          </mxGeometry>
        </mxCell>
        <mxCell id="m8ZDEifHt8UB5jOYtK-G-56" value="" style="endArrow=none;html=1;rounded=0;entryX=0;entryY=1;entryDx=0;entryDy=0;exitX=0.5;exitY=0;exitDx=0;exitDy=0;fontStyle=0" edge="1" parent="1" source="m8ZDEifHt8UB5jOYtK-G-59" target="m8ZDEifHt8UB5jOYtK-G-50">
          <mxGeometry width="50" height="50" relative="1" as="geometry">
            <mxPoint x="506.57808368125006" y="-857.9306503330581" as="sourcePoint" />
            <mxPoint x="495.75697211155375" y="-891.6961736334406" as="targetPoint" />
          </mxGeometry>
        </mxCell>
        <mxCell id="m8ZDEifHt8UB5jOYtK-G-57" value="" style="endArrow=none;html=1;rounded=0;entryX=1;entryY=1;entryDx=0;entryDy=0;exitX=0.5;exitY=0;exitDx=0;exitDy=0;fontStyle=0" edge="1" parent="1" source="m8ZDEifHt8UB5jOYtK-G-60" target="m8ZDEifHt8UB5jOYtK-G-50">
          <mxGeometry width="50" height="50" relative="1" as="geometry">
            <mxPoint x="645.6410398247262" y="-855.519074770357" as="sourcePoint" />
            <mxPoint x="495.75697211155375" y="-891.6961736334406" as="targetPoint" />
          </mxGeometry>
        </mxCell>
        <mxCell id="m8ZDEifHt8UB5jOYtK-G-58" value="a" style="ellipse;whiteSpace=wrap;html=1;aspect=fixed;fontStyle=0" vertex="1" parent="1">
          <mxGeometry x="500.0009561752988" y="-850.0025401929262" width="16.471613545816734" height="16.471613545816734" as="geometry" />
        </mxCell>
        <mxCell id="m8ZDEifHt8UB5jOYtK-G-59" value="b" style="ellipse;whiteSpace=wrap;html=1;aspect=fixed;fontStyle=0" vertex="1" parent="1">
          <mxGeometry x="533.2270916334661" y="-807.2910289389068" width="16.471613545816734" height="16.471613545816734" as="geometry" />
        </mxCell>
        <mxCell id="m8ZDEifHt8UB5jOYtK-G-60" value="c" style="ellipse;whiteSpace=wrap;html=1;aspect=fixed;fontStyle=0" vertex="1" parent="1">
          <mxGeometry x="591.5139442231075" y="-807.2910289389068" width="16.471613545816734" height="16.471613545816734" as="geometry" />
        </mxCell>
        <mxCell id="m8ZDEifHt8UB5jOYtK-G-61" value="e" style="ellipse;whiteSpace=wrap;html=1;aspect=fixed;fontStyle=0" vertex="1" parent="1">
          <mxGeometry x="453.3034661354582" y="-903.7526366559487" width="16.471613545816734" height="16.471613545816734" as="geometry" />
        </mxCell>
        <mxCell id="m8ZDEifHt8UB5jOYtK-G-62" value="" style="ellipse;whiteSpace=wrap;html=1;aspect=fixed;fontStyle=0;fillColor=#fad9d5;strokeColor=#ae4132;" vertex="1" parent="1">
          <mxGeometry x="482.4342629482071" y="-968.0627331189711" width="20" height="20" as="geometry" />
        </mxCell>
        <mxCell id="m8ZDEifHt8UB5jOYtK-G-63" value="&lt;font style=&quot;font-size: 12px;&quot;&gt;d&lt;/font&gt;" style="ellipse;whiteSpace=wrap;html=1;aspect=fixed;fontStyle=0" vertex="1" parent="1">
          <mxGeometry x="400" y="-964.0434405144696" width="16.471613545816734" height="16.471613545816734" as="geometry" />
        </mxCell>
        <mxCell id="m8ZDEifHt8UB5jOYtK-G-64" value="" style="ellipse;whiteSpace=wrap;html=1;aspect=fixed;fontStyle=0;fillColor=#bac8d3;strokeColor=#23445d;" vertex="1" parent="1">
          <mxGeometry x="433.3067729083665" y="-1040.41" width="20" height="20" as="geometry" />
        </mxCell>
        <mxCell id="m8ZDEifHt8UB5jOYtK-G-65" value="" style="endArrow=none;html=1;rounded=0;entryX=1;entryY=1;entryDx=0;entryDy=0;exitX=0.5;exitY=0;exitDx=0;exitDy=0;fontStyle=0" edge="1" parent="1" source="m8ZDEifHt8UB5jOYtK-G-51" target="m8ZDEifHt8UB5jOYtK-G-62">
          <mxGeometry width="50" height="50" relative="1" as="geometry">
            <mxPoint x="445.79681274900395" y="-869.1881350482316" as="sourcePoint" />
            <mxPoint x="487.43027888446215" y="-909.3810610932477" as="targetPoint" />
          </mxGeometry>
        </mxCell>
        <mxCell id="m8ZDEifHt8UB5jOYtK-G-66" value="" style="endArrow=none;html=1;rounded=0;entryX=1;entryY=1;entryDx=0;entryDy=0;exitX=0.5;exitY=0;exitDx=0;exitDy=0;fontStyle=0" edge="1" parent="1" source="m8ZDEifHt8UB5jOYtK-G-50" target="m8ZDEifHt8UB5jOYtK-G-51">
          <mxGeometry width="50" height="50" relative="1" as="geometry">
            <mxPoint x="524.9003984063745" y="-815.3296141479101" as="sourcePoint" />
            <mxPoint x="566.5338645418326" y="-855.5225401929262" as="targetPoint" />
          </mxGeometry>
        </mxCell>
        <mxCell id="m8ZDEifHt8UB5jOYtK-G-67" value="(b)&amp;nbsp; &amp;nbsp;PrimConsTree" style="text;html=1;align=center;verticalAlign=middle;resizable=0;points=[];autosize=1;strokeColor=none;fillColor=none;" vertex="1" parent="1">
          <mxGeometry x="507.23" y="-420.41" width="130" height="30" as="geometry" />
        </mxCell>
        <mxCell id="m8ZDEifHt8UB5jOYtK-G-68" value="" style="ellipse;whiteSpace=wrap;html=1;aspect=fixed;fontStyle=0;fillColor=#ffff88;strokeColor=#36393d;" vertex="1" parent="1">
          <mxGeometry x="623.9871713147411" y="-530.1125401929261" width="16.471613545816734" height="16.471613545816734" as="geometry" />
        </mxCell>
        <mxCell id="m8ZDEifHt8UB5jOYtK-G-69" value="" style="endArrow=none;html=1;rounded=0;exitX=0.5;exitY=0;exitDx=0;exitDy=0;entryX=1;entryY=1;entryDx=0;entryDy=0;fontStyle=0" edge="1" parent="1" source="m8ZDEifHt8UB5jOYtK-G-83" target="m8ZDEifHt8UB5jOYtK-G-84">
          <mxGeometry width="50" height="50" relative="1" as="geometry">
            <mxPoint x="587.1942629482071" y="-642.6527331189709" as="sourcePoint" />
            <mxPoint x="553.087588188507" y="-685.9791847198594" as="targetPoint" />
          </mxGeometry>
        </mxCell>
        <mxCell id="m8ZDEifHt8UB5jOYtK-G-70" value="" style="endArrow=none;html=1;rounded=0;exitX=0.5;exitY=0;exitDx=0;exitDy=0;entryX=0;entryY=1;entryDx=0;entryDy=0;fontStyle=0" edge="1" parent="1" source="m8ZDEifHt8UB5jOYtK-G-78" target="m8ZDEifHt8UB5jOYtK-G-83">
          <mxGeometry width="50" height="50" relative="1" as="geometry">
            <mxPoint x="428.30621117128993" y="-532.520650333058" as="sourcePoint" />
            <mxPoint x="577.2947680115956" y="-618.7532381823594" as="targetPoint" />
          </mxGeometry>
        </mxCell>
        <mxCell id="m8ZDEifHt8UB5jOYtK-G-71" value="" style="endArrow=none;html=1;rounded=0;exitX=0.5;exitY=0;exitDx=0;exitDy=0;entryX=0;entryY=1;entryDx=0;entryDy=0;fontStyle=0" edge="1" parent="1" source="m8ZDEifHt8UB5jOYtK-G-75" target="m8ZDEifHt8UB5jOYtK-G-82">
          <mxGeometry width="50" height="50" relative="1" as="geometry">
            <mxPoint x="458.2894860398656" y="-445.70393007582334" as="sourcePoint" />
            <mxPoint x="619.7148931360318" y="-559.5658768538933" as="targetPoint" />
          </mxGeometry>
        </mxCell>
        <mxCell id="m8ZDEifHt8UB5jOYtK-G-72" value="" style="endArrow=none;html=1;rounded=0;exitX=0.5;exitY=0;exitDx=0;exitDy=0;entryX=0;entryY=1;entryDx=0;entryDy=0;fontStyle=0" edge="1" parent="1" source="m8ZDEifHt8UB5jOYtK-G-79" target="m8ZDEifHt8UB5jOYtK-G-84">
          <mxGeometry width="50" height="50" relative="1" as="geometry">
            <mxPoint x="544.8835059760956" y="-526.0932475884244" as="sourcePoint" />
            <mxPoint x="529.0459576282253" y="-685.979184719859" as="targetPoint" />
          </mxGeometry>
        </mxCell>
        <mxCell id="m8ZDEifHt8UB5jOYtK-G-73" value="" style="endArrow=none;html=1;rounded=0;entryX=0;entryY=1;entryDx=0;entryDy=0;exitX=0.5;exitY=0;exitDx=0;exitDy=0;fontStyle=0" edge="1" parent="1" source="m8ZDEifHt8UB5jOYtK-G-76" target="m8ZDEifHt8UB5jOYtK-G-68">
          <mxGeometry width="50" height="50" relative="1" as="geometry">
            <mxPoint x="597.33808368125" y="-532.520650333058" as="sourcePoint" />
            <mxPoint x="586.5169721115537" y="-566.2861736334405" as="targetPoint" />
          </mxGeometry>
        </mxCell>
        <mxCell id="m8ZDEifHt8UB5jOYtK-G-74" value="" style="endArrow=none;html=1;rounded=0;entryX=1;entryY=1;entryDx=0;entryDy=0;exitX=0.5;exitY=0;exitDx=0;exitDy=0;fontStyle=0" edge="1" parent="1" source="m8ZDEifHt8UB5jOYtK-G-77" target="m8ZDEifHt8UB5jOYtK-G-68">
          <mxGeometry width="50" height="50" relative="1" as="geometry">
            <mxPoint x="736.4010398247262" y="-530.1090747703569" as="sourcePoint" />
            <mxPoint x="586.5169721115537" y="-566.2861736334405" as="targetPoint" />
          </mxGeometry>
        </mxCell>
        <mxCell id="m8ZDEifHt8UB5jOYtK-G-75" value="c" style="ellipse;whiteSpace=wrap;html=1;aspect=fixed;fontStyle=0" vertex="1" parent="1">
          <mxGeometry x="565.0509561752988" y="-530.1125401929261" width="16.471613545816734" height="16.471613545816734" as="geometry" />
        </mxCell>
        <mxCell id="m8ZDEifHt8UB5jOYtK-G-76" value="a" style="ellipse;whiteSpace=wrap;html=1;aspect=fixed;fontStyle=0" vertex="1" parent="1">
          <mxGeometry x="597.9970916334662" y="-481.88102893890675" width="16.471613545816734" height="16.471613545816734" as="geometry" />
        </mxCell>
        <mxCell id="m8ZDEifHt8UB5jOYtK-G-77" value="b" style="ellipse;whiteSpace=wrap;html=1;aspect=fixed;fontStyle=0" vertex="1" parent="1">
          <mxGeometry x="650.7639442231075" y="-481.88102893890675" width="16.471613545816734" height="16.471613545816734" as="geometry" />
        </mxCell>
        <mxCell id="m8ZDEifHt8UB5jOYtK-G-78" value="d" style="ellipse;whiteSpace=wrap;html=1;aspect=fixed;fontStyle=0" vertex="1" parent="1">
          <mxGeometry x="529.9634661354582" y="-583.0026366559485" width="16.471613545816734" height="16.471613545816734" as="geometry" />
        </mxCell>
        <mxCell id="m8ZDEifHt8UB5jOYtK-G-79" value="e" style="ellipse;whiteSpace=wrap;html=1;aspect=fixed;fontStyle=0" vertex="1" parent="1">
          <mxGeometry x="490.76000000000005" y="-638.6334405144695" width="16.471613545816734" height="16.471613545816734" as="geometry" />
        </mxCell>
        <mxCell id="m8ZDEifHt8UB5jOYtK-G-80" value="" style="endArrow=none;html=1;rounded=0;entryX=1;entryY=1;entryDx=0;entryDy=0;exitX=0.5;exitY=0;exitDx=0;exitDy=0;fontStyle=0" edge="1" parent="1" source="m8ZDEifHt8UB5jOYtK-G-82" target="m8ZDEifHt8UB5jOYtK-G-83">
          <mxGeometry width="50" height="50" relative="1" as="geometry">
            <mxPoint x="627.4930677290838" y="-578.3440514469453" as="sourcePoint" />
            <mxPoint x="597.0937578848186" y="-618.7532381823594" as="targetPoint" />
          </mxGeometry>
        </mxCell>
        <mxCell id="m8ZDEifHt8UB5jOYtK-G-81" value="" style="endArrow=none;html=1;rounded=0;entryX=1;entryY=1;entryDx=0;entryDy=0;exitX=0.5;exitY=0;exitDx=0;exitDy=0;fontStyle=0" edge="1" parent="1" source="m8ZDEifHt8UB5jOYtK-G-68" target="m8ZDEifHt8UB5jOYtK-G-82">
          <mxGeometry width="50" height="50" relative="1" as="geometry">
            <mxPoint x="615.6603984063745" y="-489.91961414791" as="sourcePoint" />
            <mxPoint x="635.2712423221353" y="-559.5658768538938" as="targetPoint" />
          </mxGeometry>
        </mxCell>
        <mxCell id="m8ZDEifHt8UB5jOYtK-G-82" value="" style="ellipse;whiteSpace=wrap;html=1;aspect=fixed;fontStyle=0;fillColor=#b1ddf0;strokeColor=#10739e;" vertex="1" parent="1">
          <mxGeometry x="597.9971713147411" y="-575.0025401929261" width="16.471613545816734" height="16.471613545816734" as="geometry" />
        </mxCell>
        <mxCell id="m8ZDEifHt8UB5jOYtK-G-83" value="" style="ellipse;whiteSpace=wrap;html=1;aspect=fixed;fontStyle=0;fillColor=#fad7ac;strokeColor=#b46504;" vertex="1" parent="1">
          <mxGeometry x="565.047171314741" y="-638.6325401929261" width="16.471613545816734" height="16.471613545816734" as="geometry" />
        </mxCell>
        <mxCell id="m8ZDEifHt8UB5jOYtK-G-84" value="" style="ellipse;whiteSpace=wrap;html=1;aspect=fixed;fontStyle=0;fillColor=#bac8d3;strokeColor=#23445d;" vertex="1" parent="1">
          <mxGeometry x="525.737171314741" y="-700.0025401929261" width="16.471613545816734" height="16.471613545816734" as="geometry" />
        </mxCell>
        <mxCell id="m8ZDEifHt8UB5jOYtK-G-85" value="" style="ellipse;whiteSpace=wrap;html=1;aspect=fixed;fontStyle=0;fillColor=#e3c800;strokeColor=#B09500;fontColor=#000000;" vertex="1" parent="1">
          <mxGeometry x="182.22358565737056" y="-855.5225401929262" width="20" height="20" as="geometry" />
        </mxCell>
        <mxCell id="m8ZDEifHt8UB5jOYtK-G-86" value="" style="ellipse;whiteSpace=wrap;html=1;aspect=fixed;fontStyle=0;fillColor=#fff2cc;strokeColor=#d6b656;" vertex="1" parent="1">
          <mxGeometry x="146.4865338645419" y="-903.7540514469454" width="20" height="20" as="geometry" />
        </mxCell>
        <mxCell id="m8ZDEifHt8UB5jOYtK-G-87" value="" style="endArrow=none;html=1;rounded=0;exitX=0.5;exitY=0;exitDx=0;exitDy=0;entryX=1;entryY=1;entryDx=0;entryDy=0;fontStyle=0" edge="1" parent="1" source="m8ZDEifHt8UB5jOYtK-G-97" target="m8ZDEifHt8UB5jOYtK-G-99">
          <mxGeometry width="50" height="50" relative="1" as="geometry">
            <mxPoint x="67.68175298804783" y="-851.5032475884245" as="sourcePoint" />
            <mxPoint x="65.9156978012478" y="-1004.7958192209894" as="targetPoint" />
          </mxGeometry>
        </mxCell>
        <mxCell id="m8ZDEifHt8UB5jOYtK-G-88" value="" style="endArrow=none;html=1;rounded=0;exitX=0.5;exitY=0;exitDx=0;exitDy=0;entryX=0;entryY=1;entryDx=0;entryDy=0;fontStyle=0" edge="1" parent="1" source="m8ZDEifHt8UB5jOYtK-G-96" target="m8ZDEifHt8UB5jOYtK-G-97">
          <mxGeometry width="50" height="50" relative="1" as="geometry">
            <mxPoint x="-60.60904990719303" y="-857.9306503330581" as="sourcePoint" />
            <mxPoint x="6.291280982889809" y="-927.0694139756233" as="targetPoint" />
          </mxGeometry>
        </mxCell>
        <mxCell id="m8ZDEifHt8UB5jOYtK-G-89" value="" style="endArrow=none;html=1;rounded=0;exitX=0.5;exitY=0;exitDx=0;exitDy=0;entryX=0;entryY=1;entryDx=0;entryDy=0;fontStyle=0" edge="1" parent="1" source="m8ZDEifHt8UB5jOYtK-G-93" target="m8ZDEifHt8UB5jOYtK-G-86">
          <mxGeometry width="50" height="50" relative="1" as="geometry">
            <mxPoint x="-27.613101487229308" y="-771.1139300758234" as="sourcePoint" />
            <mxPoint x="90.59011952191224" y="-887.676881028939" as="targetPoint" />
          </mxGeometry>
        </mxCell>
        <mxCell id="m8ZDEifHt8UB5jOYtK-G-90" value="" style="endArrow=none;html=1;rounded=0;exitX=0.5;exitY=0;exitDx=0;exitDy=0;entryX=0;entryY=1;entryDx=0;entryDy=0;fontStyle=0" edge="1" parent="1" source="m8ZDEifHt8UB5jOYtK-G-98" target="m8ZDEifHt8UB5jOYtK-G-99">
          <mxGeometry width="50" height="50" relative="1" as="geometry">
            <mxPoint x="67.68175298804783" y="-851.5032475884245" as="sourcePoint" />
            <mxPoint x="105.11268912682374" y="-1006.8002031494905" as="targetPoint" />
          </mxGeometry>
        </mxCell>
        <mxCell id="m8ZDEifHt8UB5jOYtK-G-91" value="" style="endArrow=none;html=1;rounded=0;entryX=0;entryY=1;entryDx=0;entryDy=0;exitX=0.5;exitY=0;exitDx=0;exitDy=0;fontStyle=0" edge="1" parent="1" source="m8ZDEifHt8UB5jOYtK-G-94" target="m8ZDEifHt8UB5jOYtK-G-85">
          <mxGeometry width="50" height="50" relative="1" as="geometry">
            <mxPoint x="125.40688634778701" y="-857.9306503330581" as="sourcePoint" />
            <mxPoint x="113.49848605577688" y="-891.6961736334406" as="targetPoint" />
          </mxGeometry>
        </mxCell>
        <mxCell id="m8ZDEifHt8UB5jOYtK-G-92" value="" style="endArrow=none;html=1;rounded=0;entryX=1;entryY=1;entryDx=0;entryDy=0;exitX=0.5;exitY=0;exitDx=0;exitDy=0;fontStyle=0" edge="1" parent="1" source="m8ZDEifHt8UB5jOYtK-G-95" target="m8ZDEifHt8UB5jOYtK-G-85">
          <mxGeometry width="50" height="50" relative="1" as="geometry">
            <mxPoint x="278.44267540520116" y="-855.519074770357" as="sourcePoint" />
            <mxPoint x="113.49848605577688" y="-891.6961736334406" as="targetPoint" />
          </mxGeometry>
        </mxCell>
        <mxCell id="m8ZDEifHt8UB5jOYtK-G-93" value="&lt;font style=&quot;font-size: 12px;&quot;&gt;d&lt;/font&gt;" style="ellipse;whiteSpace=wrap;html=1;aspect=fixed;fontStyle=0" vertex="1" parent="1">
          <mxGeometry x="118.84047808764942" y="-850.0025401929262" width="16.881028938906752" height="16.881028938906752" as="geometry" />
        </mxCell>
        <mxCell id="m8ZDEifHt8UB5jOYtK-G-94" value="&lt;font style=&quot;font-size: 12px;&quot;&gt;a&lt;/font&gt;" style="ellipse;whiteSpace=wrap;html=1;aspect=fixed;fontStyle=0" vertex="1" parent="1">
          <mxGeometry x="160.003545816733" y="-807.7010289389068" width="16.881028938906752" height="16.881028938906752" as="geometry" />
        </mxCell>
        <mxCell id="m8ZDEifHt8UB5jOYtK-G-95" value="&lt;font style=&quot;font-size: 12px;&quot;&gt;b&lt;/font&gt;" style="ellipse;whiteSpace=wrap;html=1;aspect=fixed;fontStyle=0" vertex="1" parent="1">
          <mxGeometry x="218.87697211155375" y="-807.2910289389068" width="16.881028938906752" height="16.881028938906752" as="geometry" />
        </mxCell>
        <mxCell id="m8ZDEifHt8UB5jOYtK-G-96" value="c" style="ellipse;whiteSpace=wrap;html=1;aspect=fixed;fontStyle=0" vertex="1" parent="1">
          <mxGeometry x="61.896733067729045" y="-903.7526366559487" width="16.881028938906752" height="16.881028938906752" as="geometry" />
        </mxCell>
        <mxCell id="m8ZDEifHt8UB5jOYtK-G-97" value="" style="ellipse;whiteSpace=wrap;html=1;aspect=fixed;fontStyle=0;fillColor=#fad7ac;strokeColor=#b46504;" vertex="1" parent="1">
          <mxGeometry x="98.83713147410356" y="-968.0627331189712" width="20" height="20" as="geometry" />
        </mxCell>
        <mxCell id="m8ZDEifHt8UB5jOYtK-G-98" value="&lt;font style=&quot;font-size: 12px;&quot;&gt;e&lt;/font&gt;" style="ellipse;whiteSpace=wrap;html=1;aspect=fixed;fontStyle=0" vertex="1" parent="1">
          <mxGeometry x="8.119999999999997" y="-964.0434405144696" width="16.881028938906752" height="16.881028938906752" as="geometry" />
        </mxCell>
        <mxCell id="m8ZDEifHt8UB5jOYtK-G-99" value="" style="ellipse;whiteSpace=wrap;html=1;aspect=fixed;fontStyle=0;fillColor=#bac8d3;strokeColor=#23445d;" vertex="1" parent="1">
          <mxGeometry x="44.7733864541833" y="-1040.41" width="20" height="20" as="geometry" />
        </mxCell>
        <mxCell id="m8ZDEifHt8UB5jOYtK-G-100" value="" style="endArrow=none;html=1;rounded=0;entryX=1;entryY=1;entryDx=0;entryDy=0;exitX=0.5;exitY=0;exitDx=0;exitDy=0;fontStyle=0" edge="1" parent="1" source="m8ZDEifHt8UB5jOYtK-G-86" target="m8ZDEifHt8UB5jOYtK-G-97">
          <mxGeometry width="50" height="50" relative="1" as="geometry">
            <mxPoint x="58.51840637450197" y="-869.1881350482316" as="sourcePoint" />
            <mxPoint x="104.33513944223102" y="-909.3810610932477" as="targetPoint" />
          </mxGeometry>
        </mxCell>
        <mxCell id="m8ZDEifHt8UB5jOYtK-G-101" value="" style="endArrow=none;html=1;rounded=0;entryX=1;entryY=1;entryDx=0;entryDy=0;exitX=0.5;exitY=0;exitDx=0;exitDy=0;fontStyle=0" edge="1" parent="1" source="m8ZDEifHt8UB5jOYtK-G-85" target="m8ZDEifHt8UB5jOYtK-G-86">
          <mxGeometry width="50" height="50" relative="1" as="geometry">
            <mxPoint x="145.57019920318737" y="-815.3296141479101" as="sourcePoint" />
            <mxPoint x="191.38693227091642" y="-855.5225401929262" as="targetPoint" />
          </mxGeometry>
        </mxCell>
      </root>
    </mxGraphModel>
  </diagram>
</mxfile>
